# File created by Blade
# Date/Time:  Mon Nov 18 18:33:23 2013
# Frame Rate: 100.000 fps
#------------------------------------------------------
:FULLY-SPECIFIED
:DEGREES
197
root 53.427590 -3.270124 52.283990 -2.428250 1.402333 -125.928564
Spine 13.089700 -0.595644 -0.653426
Spine1 3.415450 1.540627 -1.589315
Spine2 0.634443 -1.473448 -1.503530
NeckDummy -0.000487 -0.124916 -0.016955 -1.457405 1.254735 -0.506694
Neck 14.555643 -0.569088 27.797065
Head -0.307461 0.354408 0.206827 -34.451233 -4.332103 -0.671483
LeftShoulderDummy -0.062840 -0.115676 0.038046 -1.437665 1.134550 -0.291532
LeftShoulder 6.801280 -3.542378 14.115344
LeftArm 23.062016 49.838699 30.531337
LeftForeArm 90.108024
LeftForeArmRoll -36.842294
LeftHand -9.636137 5.728572 -4.601187
LeftHandThumb1 16.682846 12.847016
LeftHandIndex1 14.354197 43.560559
LeftHandPinky1 13.574441 48.124712
RightShoulderDummy -0.036067 -0.100990 0.066509 -1.476507 -1.259062 0.512884
RightShoulder 5.934159 4.704911 17.235801
RightArm -42.511159 68.388654 -4.836305
RightForeArm 113.428810
RightForeArmRoll 5.152986
RightHand -17.844728 -15.317967 12.241784
RightHandThumb1 -0.093818 13.470986
RightHandIndex1 13.255396 60.562698
RightHandPinky1 18.590960 68.711128
LeftUpLeg 6.214181 21.200855 -34.261099
LeftLeg 56.223016
LeftFoot 0.575820 -1.039594 -0.847852 -11.244092 10.083358 -13.636872
LeftToeBase -1.914440
RightUpLeg 10.934950 12.746503 -26.571859
RightLeg 63.704980
RightFoot -0.519412 0.433080 0.268143 -0.246558 6.813677 -32.699418
RightToeBase -0.798775
198
root 53.403060 -3.295923 52.282803 -2.526694 1.397337 -126.032134
Spine 13.110322 -0.588518 -0.648934
Spine1 3.405379 1.541601 -1.577744
Spine2 0.654597 -1.513910 -1.424801
NeckDummy -0.000822 -0.123376 -0.017709 -1.479583 1.200518 -0.508964
Neck 14.648775 -0.398162 27.839478
Head -0.305828 0.352832 0.204278 -34.376085 -4.307771 -0.658034
LeftShoulderDummy -0.062893 -0.114116 0.039329 -1.459620 1.080648 -0.294955
LeftShoulder 6.797448 -3.521358 14.197434
LeftArm 22.882086 49.876813 30.505433
LeftForeArm 90.060286
LeftForeArmRoll -36.909677
LeftHand -9.572861 5.666388 -4.641945
LeftHandThumb1 16.761984 12.814176
LeftHandIndex1 14.330933 43.843616
LeftHandPinky1 13.541908 48.025309
RightShoulderDummy -0.036091 -0.099459 0.065497 -1.498694 -1.204962 0.516842
RightShoulder 5.878274 4.645521 17.163211
RightArm -42.173303 68.409400 -4.413717
RightForeArm 113.293472
RightForeArmRoll 4.730477
RightHand -17.729580 -15.983747 12.122675
RightHandThumb1 -0.411716 13.771089
RightHandIndex1 13.671482 61.109556
RightHandPinky1 18.872604 69.830191
LeftUpLeg 6.335480 21.331936 -34.226529
LeftLeg 56.468542
LeftFoot 0.571266 -1.041500 -0.843492 -11.399939 9.973624 -13.743852
LeftToeBase -1.876044
RightUpLeg 10.854775 12.756204 -26.534070
RightLeg 63.852637
RightFoot -0.518865 0.433860 0.268968 -0.268589 6.753447 -32.748890
RightToeBase -0.893801
199
root 53.377579 -3.318800 52.279006 -2.635468 1.370843 -126.103939
Spine 13.121049 -0.591930 -0.627933
Spine1 3.430477 1.553115 -1.531144
Spine2 0.658101 -1.482728 -1.453519
NeckDummy -0.000740 -0.126216 -0.017764 -1.453689 1.217833 -0.500211
Neck 14.737034 -0.338864 27.930580
Head -0.306140 0.355797 0.200831 -34.374775 -4.229358 -0.679536
LeftShoulderDummy -0.062730 -0.117002 0.038022 -1.433234 1.097171 -0.285098
LeftShoulder 6.837584 -3.541295 14.221431
LeftArm 22.804272 49.888444 30.558474
LeftForeArm 90.013684
LeftForeArmRoll -36.961336
LeftHand -9.622182 5.684670 -4.667044
LeftHandThumb1 16.331414 12.881369
LeftHandIndex1 14.274006 43.271818
LeftHandPinky1 13.193854 48.166198
RightShoulderDummy -0.036453 -0.102529 0.064601 -1.473027 -1.220668 0.504663
RightShoulder 5.829574 4.673983 17.133593
RightArm -41.661091 68.432009 -3.916267
RightForeArm 113.197749
RightForeArmRoll 4.901302
RightHand -17.706789 -15.773400 12.264288
RightHandThumb1 -0.588083 13.412695
RightHandIndex1 13.289351 60.895372
RightHandPinky1 18.661342 69.318730
LeftUpLeg 6.448717 21.440072 -34.163068
LeftLeg 56.598717
LeftFoot 0.583247 -1.037698 -0.864683 -11.407045 9.880701 -13.750262
LeftToeBase -1.835930
RightUpLeg 10.799191 12.760944 -26.464010
RightLeg 63.979280
RightFoot -0.514733 0.431195 0.268578 -0.342662 6.716699 -32.774282
RightToeBase -0.941663
200
root 53.345985 -3.339608 52.280016 -2.720590 1.383458 -126.142286
Spine 13.104037 -0.583677 -0.636498
Spine1 3.435400 1.551782 -1.548268
Spine2 0.700226 -1.506669 -1.442845
NeckDummy -0.000586 -0.128137 -0.019092 -1.449730 1.213720 -0.506841
Neck 14.755894 -0.251585 27.978400
Head -0.304579 0.355686 0.198356 -34.347332 -4.171967 -0.658590
LeftShoulderDummy -0.063199 -0.119259 0.036352 -1.429811 1.093576 -0.290043
LeftShoulder 6.880582 -3.563651 14.315432
LeftArm 22.722203 49.868156 30.592882
LeftForeArm 89.964658
LeftForeArmRoll -36.999338
LeftHand -9.605539 5.683509 -4.611185
LeftHandThumb1 16.869346 12.836207
LeftHandIndex1 14.309117 43.209416
LeftHandPinky1 13.214458 48.118784
RightShoulderDummy -0.036632 -0.104431 0.063086 -1.468712 -1.216422 0.510825
RightShoulder 5.823014 4.685172 17.113413
RightArm -41.085343 68.472749 -3.275750
RightForeArm 113.132166
RightForeArmRoll 4.767513
RightHand -17.670913 -15.946186 11.933222
RightHandThumb1 -0.744373 13.678550
RightHandIndex1 13.603099 61.010108
RightHandPinky1 18.846376 69.158045
LeftUpLeg 6.475446 21.462848 -34.141123
LeftLeg 56.800307
LeftFoot 0.583484 -1.039659 -0.868016 -11.419711 9.866416 -13.805301
LeftToeBase -1.825405
RightUpLeg 10.726468 12.820772 -26.420079
RightLeg 64.104736
RightFoot -0.508814 0.433755 0.273435 -0.369673 6.694359 -32.825932
RightToeBase -0.867077
201
root 53.318217 -3.359559 52.279867 -2.818792 1.363079 -126.165377
Spine 13.114216 -0.579047 -0.630377
Spine1 3.459039 1.564213 -1.537683
Spine2 0.660764 -1.465647 -1.467944
NeckDummy -0.000677 -0.130732 -0.017634 -1.414876 1.228118 -0.495040
Neck 14.819280 -0.177722 27.898793
Head -0.303694 0.357537 0.197062 -34.272773 -4.243178 -0.635559
LeftShoulderDummy -0.062344 -0.121847 0.036357 -1.394336 1.107629 -0.280411
LeftShoulder 6.936525 -3.580751 14.266686
LeftArm 22.625064 49.952790 30.497831
LeftForeArm 89.989467
LeftForeArmRoll -37.041708
LeftHand -9.571498 5.521602 -4.720213
LeftHandThumb1 16.764011 12.704986
LeftHandIndex1 14.397935 43.428137
LeftHandPinky1 13.631008 48.011525
RightShoulderDummy -0.036235 -0.107454 0.063490 -1.433755 -1.231126 0.500176
RightShoulder 5.716983 4.777173 17.072917
RightArm -40.881425 68.550819 -3.102036
RightForeArm 113.054212
RightForeArmRoll 4.913112
RightHand -17.826906 -15.695209 11.814364
RightHandThumb1 -0.931010 13.574490
RightHandIndex1 14.085157 60.409957
RightHandPinky1 19.008310 68.901078
LeftUpLeg 6.380884 21.464513 -34.114589
LeftLeg 57.008738
LeftFoot 0.582044 -1.041774 -0.864331 -11.329449 9.969817 -13.833080
LeftToeBase -1.884701
RightUpLeg 10.734544 12.875191 -26.356684
RightLeg 64.222510
RightFoot -0.511196 0.432953 0.277346 -0.540681 6.651529 -32.793416
RightToeBase -0.954601
